<?xml version="1.0" encoding="UTF-8" standalone="no" ?>
<!DOCTYPE svg PUBLIC "-//W3C//DTD SVG 1.1//EN" "http://www.w3.org/Graphics/SVG/1.1/DTD/svg11.dtd">
<svg xmlns="http://www.w3.org/2000/svg" xmlns:xlink="http://www.w3.org/1999/xlink" version="1.1" width="1080" height="1080" viewBox="0 0 1080 1080" xml:space="preserve">
<desc>Created with Fabric.js 5.2.4</desc>
<defs>
</defs>
<g transform="matrix(1 0 0 1 540 540)" id="a5c06f6e-6e32-4f2a-bf93-21bc6d87ee5e"  >
</g>
<g transform="matrix(1 0 0 1 540 540)" id="cad42205-7a3f-47f6-9d02-0e4ddd767f14"  >
<rect style="stroke: none; stroke-width: 1; stroke-dasharray: none; stroke-linecap: butt; stroke-dashoffset: 0; stroke-linejoin: miter; stroke-miterlimit: 4; fill: rgb(255,255,255); fill-rule: nonzero; opacity: 1; visibility: hidden;" vector-effect="non-scaling-stroke"  x="-540" y="-540" rx="0" ry="0" width="1080" height="1080" />
</g>
<g transform="matrix(0 0 0 0 0 0)"  >
<g style=""   >
</g>
</g>
<g transform="matrix(31.85 0 0 31.85 540 540)" id="eac6895c-2f73-4b50-b377-a2ec94f7a287"  >
<path style="stroke: rgb(0,0,0); stroke-width: 0; stroke-dasharray: none; stroke-linecap: butt; stroke-dashoffset: 0; stroke-linejoin: miter; stroke-miterlimit: 4; fill: rgb(200,0,0); fill-rule: nonzero; opacity: 1;" vector-effect="non-scaling-stroke"  transform=" translate(-16.64, -16.11)" d="M 16.601 20.591 C 15.390999999999998 18.496000000000002 12.303999999999998 19.039 12.384 21.543 C 12.467 24.151 16.199 25.671 16.601 27.169999999999998 C 16.968999999999998 25.798 20.884 24.041999999999998 20.805999999999997 21.543 C 20.728999999999996 19.081 17.840999999999998 18.444 16.601 20.591 z M 21.328 10.174 C 24.644 13.881 18.82 15.415 17.727 12.812999999999999 C 16.779 10.555 18.131 9.076999999999998 19.827 8.980999999999998 C 24.133000000000003 8.734999999999998 25.613 3.908999999999998 22.512 1.6899999999999977 C 23.198 2.999999999999998 22.861 4.429999999999998 21.71 5.442999999999998 C 20.843 0.9439999999999982 15.625 -0.3600000000000021 12.381 3.0739999999999976 C 15.756 2.3779999999999974 16.69 3.6589999999999976 17.301000000000002 5.770999999999997 C 18.351000000000003 9.400999999999996 13.171000000000003 10.172999999999998 13.547000000000002 5.1149999999999975 C 11.964000000000002 6.110999999999997 11.420000000000002 8.413999999999998 13.547000000000002 10.434999999999999 C 14.962000000000003 11.78 14.381000000000002 13.714999999999998 12.709000000000003 13.714999999999998 C 9.918000000000003 13.726999999999999 5.986000000000003 9.015999999999998 8.992000000000003 5.004999999999997 C 6.782000000000003 5.852999999999997 5.281000000000002 6.604999999999997 4.765000000000002 8.721999999999998 C 4.322000000000003 6.882999999999997 5.169000000000002 5.255999999999998 6.733000000000002 4.4579999999999975 C 0.3700000000000019 4.918999999999998 2.1060000000000025 11.504999999999997 6.697000000000003 12.839999999999996 C 10.796000000000003 14.031999999999996 7.003000000000003 19.629999999999995 3.636000000000003 14.697999999999997 C 3.272000000000003 21.702999999999996 7.637000000000003 22.932999999999996 12.127000000000002 25.994999999999997 C 14.110000000000003 27.346999999999998 15.019000000000002 28.159999999999997 15.019000000000002 29.441999999999997 C 15.019000000000002 31.655999999999995 18.304000000000002 31.685999999999996 18.304000000000002 29.245999999999995 C 18.304000000000002 27.924999999999994 19.439000000000004 27.083999999999996 21.638 25.703999999999994 C 25.239 23.442999999999994 28.015 20.014999999999993 28.015 17.57699999999999 C 28.015 13.26499999999999 25.338 11.91399999999999 21.328 10.172999999999991 z M 16.604 28.224 C 15.969 25.856 10.073 23.454 9.942 19.334 C 9.816 15.376999999999999 14.693000000000001 14.518999999999998 16.604 17.829 C 18.561999999999998 14.438 23.125 15.443000000000001 23.247 19.334 C 23.371 23.282 17.185 26.056 16.604 28.224 z M 28.649 4.142 C 24.332 8.228000000000002 29.783 8.173 28.524 14.102 C 33.823 7.2540000000000004 27.642 7.111000000000001 28.649 4.1419999999999995 z" stroke-linecap="round" />
</g>
</svg>